<?xml version="1.0" encoding="UTF-8"?>
<svg id="Layer_2" data-name="Layer 2" xmlns="http://www.w3.org/2000/svg" xmlns:xlink="http://www.w3.org/1999/xlink" viewBox="0 0 696.31 157.21">
  <defs>
    <style>
      .cls-1 {
        fill: url(#linear-gradient-2);
      }

      .cls-2 {
        fill: #fff;
      }

      .cls-3 {
        fill: url(#linear-gradient-3);
      }

      .cls-4 {
        fill: url(#linear-gradient);
      }
    </style>
    <linearGradient id="linear-gradient" x1="58.15" y1="9.44" x2="54.64" y2="141" gradientUnits="userSpaceOnUse">
      <stop offset="0" stop-color="#2aa3ff"/>
      <stop offset="1" stop-color="#0967d8"/>
    </linearGradient>
    <linearGradient id="linear-gradient-2" x1="81.34" y1="10.06" x2="77.83" y2="141.61" xlink:href="#linear-gradient"/>
    <linearGradient id="linear-gradient-3" x1="104.53" y1="10.68" x2="101.02" y2="142.23" xlink:href="#linear-gradient"/>
  </defs>
  <g id="Layer_1-2" data-name="Layer 1">
    <g>
      <g>
        <path class="cls-2" d="M234.45,45.16c-5.69-4.94-13.74-7.41-24.18-7.41h-34.67v81.73h18.45v-23.35h16.22c10.35,0,18.39-2.63,24.12-7.88,5.72-5.25,8.57-12.64,8.57-22.12s-2.83-16.02-8.51-20.97ZM221.32,77.15c-2.77,2.37-6.76,3.56-11.97,3.56h-15.3v-27.68h15.3c5.21,0,9.19,1.16,11.97,3.45,2.76,2.29,4.13,5.69,4.13,10.22s-1.37,8.08-4.13,10.45Z"/>
        <path class="cls-2" d="M308.47,92.5c4.97-2.33,8.77-5.74,11.38-10.22,2.6-4.48,3.92-9.86,3.92-16.16,0-9.04-2.92-16.02-8.76-20.97-5.84-4.94-14.1-7.41-24.76-7.41h-35.49v81.73h18.45v-23.35h18.79l12.96,23.35h20.89l-17.39-26.97ZM302.11,77.15c-2.76,2.37-6.71,3.56-11.86,3.56h-17.04v-27.68h17.04c5.14,0,9.1,1.16,11.86,3.45,2.76,2.29,4.15,5.69,4.15,10.22s-1.39,8.08-4.15,10.45Z"/>
        <path class="cls-2" d="M402.8,53.04v-15.29h-63.52v81.73h63.52v-15.3h-45.07v-18.1l45.07.18v-15.3l-45.07-.17v-17.76h45.07Z"/>
        <path class="cls-2" d="M489.49,57.41c-3.62-6.18-8.7-11.01-15.24-14.47-6.54-3.47-13.97-5.19-22.3-5.19h-34.67v81.73h33.98c8.48,0,16.03-1.74,22.64-5.19,6.62-3.47,11.77-8.29,15.47-14.48,3.7-6.19,5.55-13.24,5.55-21.19s-1.81-15.01-5.42-21.2ZM473.08,91.81c-2.03,3.81-4.84,6.79-8.46,8.93-3.62,2.14-7.69,3.21-12.2,3.21h-16.7v-50.67h15.88c4.67,0,8.84,1.07,12.54,3.21,3.7,2.14,6.62,5.16,8.77,9.05,2.13,3.89,3.21,8.28,3.21,13.18s-1.02,9.27-3.04,13.09Z"/>
        <path class="cls-2" d="M507.06,37.75v81.73h18.44V37.75h-18.44Z"/>
        <path class="cls-2" d="M628.01,37.75v15.64h24.87v66.09h18.45V53.39h24.98v-15.64h-68.3Z"/>
        <path class="cls-2" d="M617.52,102.86c5.02-6.85,7.98-15.21,7.98-24.25,0-23.28-19.62-42.14-43.83-42.14s-43.83,18.86-43.83,42.14,18.41,40.95,41.58,42.07c.74.04,1.5.06,2.25.06s1.51-.02,2.25-.06c4.97-.23,9.73-1.28,14.12-2.99l-3.09-3.13-10.01-10.09c-1,.12-2.01.18-3.04.18-4.51,0-8.7-1.17-12.55-3.5-3.86-2.33-6.93-5.5-9.22-9.46-2.3-3.96-3.45-8.37-3.45-13.2s1.13-9.11,3.39-13.07c2.25-3.96,5.33-7.1,9.22-9.4s8.1-3.44,12.61-3.44,8.66,1.14,12.43,3.44c3.78,2.3,6.77,5.44,9,9.4,2.21,3.96,3.32,8.33,3.32,13.07,0,3.99-.75,7.69-2.26,11.12-.32.73-.67,1.44-1.06,2.14-.61,1.09-1.26,2.12-1.99,3.08-1.92,2.58-4.26,4.71-7.01,6.37-.95.57-1.92,1.08-2.91,1.52l12.23,12.34,5.06,5.12.5.5h25.96l-17.66-17.82Z"/>
      </g>
      <g>
        <path class="cls-4" d="M24.78,137.66l.5-2.11,5.59-23.4,10.07-42.15c.09-.42.19-.84.3-1.25v-.02c3.45-13.33,13.67-23.94,26.79-27.92,3.63-1.1,7.49-1.69,11.48-1.69,10.6,0,20.23,4.18,27.33,10.98l2.62-10.98,2.37-9.93c-9.29-6.08-20.39-9.62-32.32-9.62-2.19,0-4.36.12-6.49.35-7.81.85-15.15,3.22-21.74,6.81-5.91,3.22-11.21,7.42-15.67,12.38-6.42,7.13-11.13,15.83-13.48,25.46l-.18.76-11.95,50.04-5.32,22.29-4.67,19.55h40.23l2.21-9.26,2.46-10.3h-20.11Z"/>
        <path class="cls-1" d="M60.25,73.38v.04s-.02.04-.02.04l-.24,1h0c-.28,1.35-.43,2.73-.43,4.15,0,11.02,8.93,19.96,19.96,19.96,9.26,0,17.04-6.3,19.3-14.85h0s.2-.84.2-.84v-.05s.01,0,.01,0c.3-1.36.45-2.77.45-4.22,0-11.02-8.93-19.96-19.96-19.96-9.21,0-16.96,6.24-19.26,14.72Z"/>
        <path class="cls-3" d="M138.92,0h-20.11l-2.22,9.28-2.45,10.28h20.11l-.51,2.14-4.16,17.42-1.43,5.99-10.07,42.14-.26,1.11c-3.4,13.42-13.65,24.1-26.82,28.09-3.63,1.1-7.49,1.7-11.48,1.7-10.6,0-20.23-4.18-27.33-10.98l-4.99,20.91c8.87,5.81,19.4,9.3,30.72,9.6h3.2c1.65-.04,3.28-.16,4.89-.33,7.8-.85,15.15-3.22,21.74-6.82,14.38-7.84,25.14-21.48,29.13-37.77l.19-.78,11.97-50.08.66-2.76,4.67-19.55,4.67-19.55h-20.11Z"/>
      </g>
    </g>
  </g>
</svg>